<?xml version="1.0" standalone="no"?>
<!DOCTYPE svg PUBLIC "-//W3C//DTD SVG 20010904//EN"
 "http://www.w3.org/TR/2001/REC-SVG-20010904/DTD/svg10.dtd">
<svg version="1.0" xmlns="http://www.w3.org/2000/svg"
 width="512.000000pt" height="512.000000pt" viewBox="0 0 512.000000 512.000000"
 preserveAspectRatio="xMidYMid meet">

<g transform="translate(0.000000,512.000000) scale(0.100000,-0.100000)"
fill="#000000" stroke="none">
<path d="M507 4603 c-11 -11 -8 -3032 3 -3188 22 -307 100 -489 284 -662 160
-151 321 -218 577 -242 152 -15 2223 -15 2374 -1 225 21 393 83 536 197 194
155 301 372 329 668 6 70 10 675 10 1668 0 1319 -2 1558 -14 1563 -11 4 -768
-234 -1323 -417 l-153 -51 0 -89 0 -89 -570 0 -570 0 0 89 0 89 -152 51 c-303
100 -1307 421 -1315 421 -6 0 -13 -3 -16 -7z m2621 -1945 l2 -578 210 0 c193
0 210 -1 210 -17 0 -22 -965 -848 -990 -848 -25 0 -990 826 -990 848 0 16 17
17 210 17 l210 0 0 573 c0 316 3 577 7 580 3 4 259 6 567 5 l561 -3 3 -577z"/>
</g>
</svg>
